<?xml version="1.0" encoding="UTF-8"?>
<svg xmlns="http://www.w3.org/2000/svg" xmlns:xlink="http://www.w3.org/1999/xlink" width="41.000mm" height="41.000mm" viewBox="295.500000 135.500000 41.000000 41.000000">
    <path style="stroke:none;fill:#FFFFFF;fill-rule:evenodd" d="M336.5,156C336.5,144.678162,327.321838,135.5,316,135.5C304.678162,135.5,295.5,144.678162,295.5,156C295.5,167.321838,304.678162,176.5,316,176.5C327.321838,176.5,336.5,167.321838,336.5,156zM315.742798,142.00415C317.342346,142.002777,318.938904,142.142807,320.513794,142.422607C321.624359,142.63147,322.67691,143.07695,323.599976,143.72876C324.689178,144.556747,325.427948,145.763504,325.670044,147.110107C325.971497,148.671768,325.923065,150.280594,325.528198,151.821289C325.195282,153.075531,324.487671,154.198486,323.499878,155.040039L324.109009,155.289551C324.995361,155.658478,325.812775,156.175217,326.526245,156.817627C327.281586,157.508011,327.822723,158.401031,328.085083,159.390137C328.542694,161.182434,328.477112,163.067566,327.896118,164.82373C327.221069,166.600784,325.877899,168.043762,324.153687,168.844238C323.485596,169.167328,322.783264,169.414154,322.059937,169.580078C320.853455,169.860779,319.618683,170.001678,318.380005,170L307.579956,170L307.579956,142C310.303009,141.982666,313.019623,141.984009,315.742798,142.00415zM312.700073,146.360107L312.700073,153.23999L317.700073,153.23999C318.660187,153.265869,319.595062,152.92981,320.31897,152.298584C320.711853,151.885895,320.963043,151.359024,321.036255,150.793945C321.16748,149.938065,321.10553,149.063919,320.854858,148.235107C320.654266,147.593735,320.186066,147.069901,319.571167,146.798828C318.975769,146.536606,318.33548,146.3918,317.685181,146.372314L317.220093,146.360107L312.700073,146.360107zM312.700073,157.280029L312.700073,165.640137L317.739868,165.640137C318.686554,165.663681,319.631287,165.539795,320.539917,165.272949C321.099915,165.1091,321.61795,164.826385,322.058716,164.444092C322.469574,164.050827,322.763763,163.551636,322.908813,163.001709C323.161926,162.035431,323.166199,161.021118,322.921265,160.052734C322.671661,159.094254,322.010437,158.295181,321.115601,157.870605C320.334747,157.517303,319.491821,157.322159,318.635132,157.296387L318.019897,157.280029L312.700073,157.280029z"/>
</svg>
