<?xml version="1.0" encoding="UTF-8"?>
<svg xmlns="http://www.w3.org/2000/svg" xmlns:xlink="http://www.w3.org/1999/xlink" width="41.000mm" height="41.000mm" viewBox="345.500000 135.500000 41.000000 41.000000">
    <path style="stroke:none;fill:#FFFFFF;fill-rule:evenodd" d="M386.5,156C386.5,144.678162,377.321838,135.5,366,135.5C354.678162,135.5,345.5,144.678162,345.5,156C345.5,167.321838,354.678162,176.5,366,176.5C377.321838,176.5,386.5,167.321838,386.5,156zM367.665405,141.442413C369.898712,141.458344,372.110474,141.881714,374.191772,142.691681C374.485229,142.810379,374.77478,142.938538,375.059937,143.075958L374.499878,147.956085C372.697876,147.183929,370.79715,146.666428,368.852417,146.418488C367.949402,146.305176,367.037079,146.285538,366.130005,146.359894C363.399109,146.559586,361.004181,148.260071,359.915405,150.772491C359.273712,152.253143,358.931458,153.846191,358.908325,155.459747C358.829437,157.13089,359.058075,158.802338,359.582886,160.3909C360.060791,161.865997,360.964508,163.166977,362.180054,164.129669C363.457581,165.094421,365.007019,165.631744,366.607544,165.66507C368.295074,165.710434,369.979645,165.498108,371.603149,165.035431C372.588715,164.763306,373.556213,164.429474,374.499878,164.035919L375.059937,168.916046C373.082245,169.837463,370.947449,170.37442,368.769165,170.498322C367.015137,170.652466,365.247803,170.534866,363.529663,170.149689C360.441864,169.440079,357.727844,167.607758,355.915405,165.009064C354.566132,163.029373,353.717865,160.751617,353.443481,158.371613C353.141937,156.045395,353.291809,153.682816,353.884888,151.413361C354.488739,149.181503,355.626526,147.130096,357.200073,145.436066C359.084442,143.479507,361.540222,142.170212,364.214966,141.696075C365.352875,141.489456,366.509521,141.404419,367.665405,141.442413z"/>
</svg>
