<?xml version="1.0" encoding="UTF-8"?>
<svg xmlns="http://www.w3.org/2000/svg" xmlns:xlink="http://www.w3.org/1999/xlink" width="59.392mm" height="24.400mm" viewBox="260.303986 89.800003 59.392029 24.399994">
    <path style="stroke:none;fill:#ff0000;fill-rule:evenodd" d="M301.5,102C301.5,95.648727,296.351288,90.5,290,90.5C283.648712,90.5,278.5,95.648727,278.5,102C278.5,108.351273,283.648712,113.5,290,113.5C296.351288,113.5,301.5,108.351273,301.5,102z"/>
    <path style="stroke:none;fill:#ffffff;fill-rule:evenodd" d="M272.503998,93.503998L277,93.503998L277,110.503998L272.503998,110.503998L272.503998,114.199997L260.303986,102L272.503998,89.800003L272.503998,93.503998z"/>
    <path style="stroke:none;fill:#ffffff;fill-rule:evenodd" d="M319.696014,102L307.503998,114.192001L307.503998,110.503998L303,110.503998L303,93.503998L307.503998,93.503998L307.503998,89.807999L319.696014,102z"/>
</svg>
