<?xml version="1.0" encoding="UTF-8"?>
<svg xmlns="http://www.w3.org/2000/svg" xmlns:xlink="http://www.w3.org/1999/xlink" width="41.000mm" height="41.000mm" viewBox="245.500000 35.500000 41.000000 41.000000">
    <path style="stroke:none;fill:#FFFFFF;fill-rule:evenodd" d="M286.5,56C286.5,44.678162,277.321838,35.5,266,35.5C254.678162,35.5,245.5,44.678162,245.5,56C245.5,67.321838,254.678162,76.5,266,76.5C277.321838,76.5,286.5,67.321838,286.5,56zM278.375,66.5L274.534912,66.5L274.534912,50.929932L274.218018,51.137207C273.511078,51.582996,272.720612,51.87999,271.89502,52.01001L271.564941,48.77002L271.8125,48.696777C273.277649,48.137371,274.511139,47.101921,275.315918,45.755859L275.435059,45.5L278.375,45.5L278.375,66.5zM261.749756,45.505859C263.007751,45.505188,264.25415,45.7463,265.421143,46.216064C266.943176,46.844357,268.047546,48.197201,268.358398,49.814209C268.649811,51.217976,268.585632,52.671818,268.171631,54.044434C267.823975,55.004112,267.242676,55.861698,266.47998,56.540039C266.014191,56.969563,265.506622,57.351425,264.964844,57.679932L269.704834,66.5L265.714844,66.5L261.36499,58.699951L257.464844,58.699951L257.464844,66.5L253.625,66.5L253.625,45.5L261.304932,45.5L261.749756,45.505859zM257.464844,48.709961L257.464844,55.099854L260.284912,55.099854C260.973206,55.112701,261.660583,55.043526,262.33252,54.893799C262.804718,54.797062,263.245453,54.58437,263.61499,54.274902C264.082275,53.827656,264.380432,53.232407,264.45874,52.590332C264.577911,51.873035,264.522552,51.137669,264.297363,50.446289C264.057739,49.749668,263.493439,49.213055,262.785645,49.008789C262.021942,48.789696,261.229309,48.688927,260.435059,48.709961L257.464844,48.709961z"/>
</svg>
