<?xml version="1.0" encoding="UTF-8"?>
<svg xmlns="http://www.w3.org/2000/svg" xmlns:xlink="http://www.w3.org/1999/xlink" width="41.000mm" height="41.000mm" viewBox="195.500000 35.500000 41.000000 41.000000">
    <path style="stroke:none;fill:#FFFFFF;fill-rule:evenodd" d="M236.5,56C236.5,44.678162,227.321838,35.5,216,35.5C204.678162,35.5,195.5,44.678162,195.5,56C195.5,67.321838,204.678162,76.5,216,76.5C227.321838,76.5,236.5,67.321838,236.5,56zM211.917648,67.82486C207.585693,67.300941,204.345108,65.66497,202.467102,63.053879C201.460052,61.653709,200.726685,59.933048,200.489258,58.413361C200.310898,57.271706,200.434952,55.203751,200.745605,54.140179C202.108643,49.473614,205.700562,46.960869,212.254578,46.089008C213.013245,45.988087,214.238449,45.926365,215.587814,45.921089C217.384354,45.914066,218.066376,45.957161,219.904694,46.193867C222.593338,46.540062,225.462997,46.587826,226.980362,46.311638C228.674469,46.003277,230.091644,45.373955,231.067276,44.496765L231.58992,44.026867L231.519135,44.369686C231.367554,45.103817,230.692184,46.304081,230.025467,47.024189C228.285416,48.903606,226.249512,49.081799,221.095566,47.805779C218.448395,47.150391,218.100754,47.104172,215.786285,47.099895C214.085159,47.096756,213.481674,47.132626,212.809128,47.276852C211.061157,47.651711,209.72049,48.086834,208.604736,48.641426C207.574051,49.153736,207.010529,49.578312,206.177872,50.46991C204.622299,52.135597,204.023453,54.424568,204.57283,56.60482C205.531631,60.409943,209.031021,62.525841,214.365341,62.525841C216.962585,62.525841,218.533386,62.231758,220.202408,61.433029C222.314087,60.42247,223.452896,58.818787,223.712967,56.489456C224.050613,53.465179,222.400162,51.451218,218.763458,50.449837C218.255219,50.309891,217.739532,50.271992,216.332108,50.271149C214.632446,50.270134,214.508133,50.283405,213.768982,50.544773C212.360931,51.042675,211.363434,51.842567,210.852081,52.88385C210.609253,53.37833,210.576263,53.558266,210.576263,54.388275C210.576263,55.472286,210.709595,55.837978,211.331635,56.460018C212.352798,57.481182,214.435471,57.855854,215.668243,57.240177C216.189529,56.979836,216.5802,56.544876,216.5802,56.224846C216.5802,55.848835,216.182175,55.782352,215.25116,56.00285C214.272507,56.234631,213.716232,56.173672,213.283768,55.787262C213.026062,55.557007,212.969635,55.423477,212.930481,54.95126C212.872147,54.247864,213.016739,53.885437,213.531464,53.444859C214.13765,52.925987,214.731155,52.769028,215.8703,52.82634C217.00914,52.883636,217.709213,53.086311,218.284851,53.525372C219.213959,54.234013,219.588348,55.206425,219.364899,56.330566C219.17775,57.272095,219.281494,57.76862,219.7547,58.196129C220.229706,58.625267,220.737671,58.78598,221.474411,58.740208C221.784714,58.720928,222.038544,58.730293,222.038467,58.761017C222.038391,58.79174,221.914886,58.935143,221.764008,59.079689C221.401428,59.427078,220.749161,59.647923,220.08577,59.647923C219.49971,59.647923,219.183395,59.517944,218.500061,58.996346C218.254501,58.808899,217.988983,58.655537,217.910034,58.655537C217.8311,58.655537,217.421432,58.855503,216.99968,59.099907C215.690857,59.858376,215.255615,59.970909,213.603043,59.978127C212.553421,59.982708,211.94928,59.935776,211.370178,59.804672C208.475571,59.149368,206.755569,57.197498,206.755569,54.567986C206.755569,51.802677,209.249878,49.451756,213.106842,48.581779C214.109009,48.355736,216.961166,48.274937,218.403412,48.431732C221.980286,48.820599,224.32338,49.749229,226.141144,51.498394C228.511475,53.779274,229.207733,56.584682,228.173904,59.68885C226.980652,63.271698,224.272095,65.861786,220.400894,67.12188C217.977661,67.910645,214.802521,68.173767,211.917648,67.82486z"/>
</svg>
