<?xml version="1.0" encoding="UTF-8"?>
<svg xmlns="http://www.w3.org/2000/svg" xmlns:xlink="http://www.w3.org/1999/xlink" width="24.400mm" height="59.392mm" viewBox="277.799988 72.304001 24.400024 59.391998">
    <path style="stroke:none;fill:#ff0000;fill-rule:evenodd" d="M301.5,102C301.5,95.648727,296.351288,90.5,290,90.5C283.648712,90.5,278.5,95.648727,278.5,102C278.5,108.351273,283.648712,113.5,290,113.5C296.351288,113.5,301.5,108.351273,301.5,102z"/>
    <path style="stroke:none;fill:#ffffff;fill-rule:evenodd" d="M298.503998,119.503998L302.191986,119.503998L290,131.695999L277.808014,119.503998L281.503998,119.503998L281.503998,115L298.503998,115L298.503998,119.503998z"/>
    <path style="stroke:none;fill:#ffffff;fill-rule:evenodd" d="M302.200012,84.503998L298.503998,84.503998L298.503998,89L281.503998,89L281.503998,84.503998L277.799988,84.503998L290,72.304001L302.200012,84.503998z"/>
</svg>
