<?xml version="1.0" encoding="UTF-8"?>
<svg xmlns="http://www.w3.org/2000/svg" xmlns:xlink="http://www.w3.org/1999/xlink" width="41.000mm" height="41.000mm" viewBox="345.500000 35.500000 41.000000 41.000000">
    <path style="stroke:none;fill:#FFFFFF;fill-rule:evenodd" d="M386.5,56C386.5,44.678162,377.321838,35.5,366,35.5C354.678162,35.5,345.5,44.678162,345.5,56C345.5,67.321838,354.678162,76.5,366,76.5C377.321838,76.5,386.5,67.321838,386.5,56zM376.125,66.5L372.284912,66.5L372.284912,50.929932L371.968018,51.137207C371.261078,51.582993,370.470612,51.879986,369.64502,52.01001L369.314941,48.77002L369.5625,48.696777C371.027649,48.137371,372.261139,47.101921,373.065918,45.755859L373.185059,45.5L376.125,45.5L376.125,66.5zM359.714844,62.780029L368.35498,62.780029L368.35498,66.5L355.875,66.5L355.875,45.5L359.714844,45.5L359.714844,62.780029z"/>
</svg>
