<?xml version="1.0" encoding="UTF-8"?>
<svg xmlns="http://www.w3.org/2000/svg" xmlns:xlink="http://www.w3.org/1999/xlink" width="41.000mm" height="41.000mm" viewBox="395.500000 35.500000 41.000000 41.000000">
    <path style="stroke:none;fill:#FFFFFF;fill-rule:evenodd" d="M436.5,56C436.5,44.678162,427.321838,35.5,416,35.5C404.678162,35.5,395.5,44.678162,395.5,56C395.5,67.321838,404.678162,76.5,416,76.5C427.321838,76.5,436.5,67.321838,436.5,56zM406.414917,62.990536L415.055054,62.990536L415.055054,66.71051L402.575073,66.71051L402.575073,45.710506L406.414917,45.710506L406.414917,62.990536zM423.283569,45.297665C424.525909,45.306293,425.733002,45.71373,426.72644,46.459774C427.488983,47.059509,428.052979,47.875172,428.344849,48.80035C428.722412,50.023113,428.777985,51.322517,428.506226,52.573055C428.192444,53.938332,427.706757,55.258057,427.060669,56.501034C425.994324,58.539597,424.821136,60.520439,423.546021,62.43536L423.184937,62.990536L429.424927,62.990536L429.424927,66.71051L416.585083,66.71051L417.070923,66.009094C419.222412,62.946651,421.248444,59.797649,423.143677,56.57037C423.763824,55.492188,424.297363,54.366531,424.73938,53.203915C425.100372,52.249886,425.140472,51.204285,424.853638,50.225399C424.547455,49.313648,423.741821,48.660358,422.786499,48.549129C421.5336,48.373215,420.26358,48.723236,419.27771,49.516171C418.503448,50.133648,417.836914,50.875088,417.305054,51.710506L416.825073,48.260555C417.352722,47.398918,418.11142,46.702557,419.015015,46.250546C420.326324,45.555149,421.801025,45.225952,423.283569,45.297665z"/>
</svg>
