<?xml version="1.0" encoding="UTF-8"?>
<svg xmlns="http://www.w3.org/2000/svg" xmlns:xlink="http://www.w3.org/1999/xlink" width="41.000mm" height="41.000mm" viewBox="395.500000 85.500000 41.000000 41.000000">
    <path style="stroke:none;fill:#FFFFFF;fill-rule:evenodd" d="M436.5,106C436.5,94.678162,427.321838,85.5,416,85.5C404.678162,85.5,395.5,94.678162,395.5,106C395.5,117.321838,404.678162,126.5,416,126.5C427.321838,126.5,436.5,117.321838,436.5,106zM428.677368,117.380264L424.517456,117.380264L424.517456,100.512833L424.174194,100.737198C423.408478,101.220428,422.552063,101.542206,421.657593,101.682755L421.299927,98.172745L421.567993,98.093643C423.155273,97.487656,424.491577,96.365891,425.363403,94.907608L425.492554,94.630264L428.677368,94.630264L428.677368,117.380264zM409.88269,94.634659C411.419464,94.626274,412.953156,94.77459,414.459839,95.077286C415.464935,95.290039,416.401123,95.750046,417.183716,96.415665C417.91684,97.098328,418.438568,97.977158,418.68689,98.947647C419.172607,100.918884,419.144287,102.980736,418.604614,104.937881C418.116577,106.470947,417.11087,107.786758,415.759644,108.660049C414.941772,109.177536,414.03009,109.529182,413.076538,109.694962C412.41394,109.83271,411.739136,109.903221,411.062378,109.905411L406.999878,109.905411L406.999878,117.380264L402.839966,117.380264L402.839966,94.630264C405.189209,94.614761,407.533661,94.616226,409.88269,94.634659zM406.999878,98.107803L406.999878,106.005264L410.509888,106.005264C411.176819,106.017715,411.842346,105.939857,412.488403,105.773819C412.977875,105.651474,413.430725,105.413155,413.808716,105.078995C414.162933,104.730263,414.419281,104.294563,414.552124,103.815567C414.874939,102.618195,414.887543,101.359001,414.588745,100.155411C414.361267,99.338806,413.735229,98.692818,412.926147,98.439835C412.111542,98.19445,411.262848,98.082344,410.412476,98.107803L406.999878,98.107803z"/>
</svg>
