<?xml version="1.0" encoding="UTF-8"?>
<svg xmlns="http://www.w3.org/2000/svg" xmlns:xlink="http://www.w3.org/1999/xlink" width="41.000mm" height="41.000mm" viewBox="295.500000 35.500000 41.000000 41.000000">
    <path style="stroke:none;fill:#FFFFFF;fill-rule:evenodd" d="M336.5,56C336.5,44.678162,327.321838,35.5,316,35.5C304.678162,35.5,295.5,44.678162,295.5,56C295.5,67.321838,304.678162,76.5,316,76.5C327.321838,76.5,336.5,67.321838,336.5,56zM325.233643,45.297665C326.475983,45.306282,327.683075,45.713722,328.676514,46.459774C329.439026,47.059578,330.003082,47.875202,330.295166,48.80035C330.672485,50.023159,330.727997,51.322529,330.456299,52.573055C330.142578,53.938351,329.656891,55.25808,329.010742,56.501034C327.944397,58.539574,326.77121,60.520462,325.496094,62.43536L325.13501,62.990536L331.375,62.990536L331.375,66.71051L318.535156,66.71051L319.020996,66.009094C321.172485,62.946659,323.198517,59.797657,325.09375,56.57037C325.714081,55.492306,326.24765,54.366611,326.689453,53.203915C327.050537,52.249924,327.090729,51.2043,326.803955,50.225399C326.497559,49.313702,325.691925,48.660465,324.736572,48.549129C323.483734,48.373169,322.213806,48.723198,321.228027,49.516171C320.453735,50.133713,319.78714,50.875137,319.255127,51.710506L318.775146,48.260555C319.302826,47.398941,320.061493,46.702587,320.965088,46.250546C322.276398,45.555153,323.751068,45.225956,325.233643,45.297665zM308.75,45.716366C309.897522,45.720497,311.036194,45.918617,312.117676,46.302303C313.369141,46.730865,314.395264,47.646416,314.963135,48.841122C315.364166,49.764549,315.559357,50.764103,315.535156,51.770565C315.559479,52.763485,315.38147,53.750984,315.011963,54.672909C314.575592,55.597874,313.934906,56.411346,313.137939,57.052303C312.76767,57.35957,312.375732,57.639668,311.965088,57.890438L316.705078,66.71051L312.715088,66.71051L308.36499,58.910458L304.465088,58.910458L304.465088,66.71051L300.625,66.71051L300.625,45.710506L308.305176,45.710506L308.75,45.716366zM304.465088,48.920467L304.465088,55.31036L307.285156,55.31036C307.973358,55.323215,308.660675,55.254044,309.33252,55.104305C309.804749,55.007706,310.245544,54.794998,310.61499,54.485409C311.082428,54.038284,311.380615,53.442963,311.45874,52.800838C311.577911,52.083553,311.522644,51.348213,311.297607,50.656796C311.0578,49.960297,310.493561,49.423759,309.785889,49.219296C309.022095,49.000217,308.229401,48.899452,307.435059,48.920467L304.465088,48.920467z"/>
</svg>
